<?xml version="1.0" encoding="utf-8"?>
<!-- Generator: Adobe Illustrator 18.1.1, SVG Export Plug-In . SVG Version: 6.00 Build 0)  -->
<!DOCTYPE svg PUBLIC "-//W3C//DTD SVG 1.1//EN" "http://www.w3.org/Graphics/SVG/1.1/DTD/svg11.dtd">
<svg version="1.1" id="XMLID_1_" xmlns="http://www.w3.org/2000/svg" xmlns:xlink="http://www.w3.org/1999/xlink" x="0px" y="0px"
	 viewBox="0 0 144 47.5151" enable-background="new 0 0 144 47.5151" xml:space="preserve">
<g id="logo">
	<path fill="#1A171B" d="M141.0286,9.3448L74.9715,0.1703C74.1544,0.0568,73.0771,0,72,0s-2.1543,0.0568-2.9714,0.1703
		L2.9715,9.3448C1.3372,9.5718,0,11.1075,0,12.7576v22c0,1.65,1.3372,3.1857,2.9715,3.4127l66.0571,9.1746
		c0.8171,0.1135,1.8943,0.1702,2.9714,0.1702s2.1544-0.0567,2.9715-0.1702l66.0571-9.1746C142.6628,37.9432,144,36.4075,144,34.7576
		v-22C144,11.1075,142.6628,9.5718,141.0286,9.3448z M142,34.7576c0,0.6469-0.6058,1.3427-1.2466,1.4317l-66.0571,9.1746
		C74.0044,45.46,73.0216,45.5151,72,45.5151c-1.0215,0-2.0043-0.0551-2.6964-0.1512l-66.057-9.1746
		C2.6058,36.1003,2,35.4045,2,34.7576v-22c0-0.6469,0.6058-1.3427,1.2466-1.4318l66.0571-9.1746C69.9957,2.0551,70.9785,2,72,2
		c1.0216,0,2.0044,0.0551,2.6964,0.1512l66.057,9.1746C141.3942,11.4149,142,12.1107,142,12.7576V34.7576z"/>
	<path fill="#1A171B" d="M79,6.6575c-3.8594,0-7,3.1401-7,7v20.2002c0,3.8599,3.1406,7,7,7s7-3.1401,7-7v-3.1001h-4v3.1001
		c0,1.6543-1.3457,3-3,3s-3-1.3457-3-3V13.6575c0-1.6543,1.3457-3,3-3s3,1.3457,3,3v3.1001h4v-3.1001
		C86,9.7976,82.8594,6.6575,79,6.6575z"/>
	<path fill="#1A171B" d="M96,9.0574c-3.8594,0-7,3.1401-7,7v15.4004c0,3.8599,3.1406,7,7,7s7-3.1401,7-7V16.0574
		C103,12.1975,99.8594,9.0574,96,9.0574z M99,31.4578c0,1.6543-1.3457,3-3,3s-3-1.3457-3-3V16.0574c0-1.6543,1.3457-3,3-3
		s3,1.3457,3,3V31.4578z"/>
	<path fill="#1A171B" d="M31,11.4578c-3.8594,0-7,3.1401-7,7v10.6997c0,3.8599,3.1406,7,7,7s7-3.1401,7-7V18.4578
		C38,14.5979,34.8594,11.4578,31,11.4578z M34,29.1575c0,1.6543-1.3457,3-3,3s-3-1.3457-3-3V18.4578c0-1.6543,1.3457-3,3-3
		s3,1.3457,3,3V29.1575z"/>
	<path fill="#1A171B" d="M132.5,14.0574h-2c-3.0322,0-5.5,2.4673-5.5,5.5v0.7002c0,3.0327,2.4678,5.5,5.5,5.5h2
		c0.8271,0,1.5,0.6729,1.5,1.5v0.7998c0,0.8271-0.6729,1.5-1.5,1.5h-2c-0.8271,0-1.5-0.6729-1.5-1.5v-0.2998h-4v0.2998
		c0,3.0327,2.4678,5.5,5.5,5.5h2c3.0322,0,5.5-2.4673,5.5-5.5v-0.7998c0-3.0327-2.4678-5.5-5.5-5.5h-2c-0.8271,0-1.5-0.6729-1.5-1.5
		v-0.7002c0-0.8271,0.6729-1.5,1.5-1.5h2c0.8271,0,1.5,0.6729,1.5,1.5v0.2002h4v-0.2002C138,16.5247,135.5322,14.0574,132.5,14.0574
		z"/>
	<polygon fill="#1A171B" points="23.6195,12.5346 18.342,13.2676 10,25.8996 10,14.4261 6,14.9817 6,32.5334 10.0418,33.0948 
		13.8221,27.3704 18.3491,34.2485 23.6201,34.9807 16.2208,23.7382 	"/>
	<path fill="#1A171B" d="M61,7.2576c-2.8258,0-5.3084,1.4767-6.732,3.6949C52.859,9.7149,51.0182,8.9578,49,8.9578
		c-4.4111,0-8,3.5889-8,8v20.4367l4,0.5555V25.7576h8v13.3035l4,0.5555V25.7576h8v14.9702l4,0.5555V21.7576H57v-6.5
		c0-2.2056,1.7939-4,4-4s4,1.7944,4,4v3.5h4v-3.5C69,10.8464,65.4111,7.2576,61,7.2576z M53,21.7576h-8v-4.7998
		c0-2.2056,1.7939-4,4-4s4,1.7944,4,4V21.7576z"/>
	<polygon fill="#1A171B" points="118,28.4729 110.5997,11.1761 106,10.5374 106,36.9778 110,36.4222 110,19.9426 116.6552,35.4979 
		122,34.7556 122,12.7595 118,12.204 	"/>
</g>
</svg>
